<svg xmlns="http://www.w3.org/2000/svg" viewBox="0 0 640 640" role="img" aria-label="AMETHYST">
<defs>
  <radialGradient id="bg"><stop stop-color="#c884ff" stop-opacity=".18"/><stop offset=".55" stop-color="#111621"/><stop offset="1" stop-color="#07090d"/></radialGradient>
  <filter id="glow"><feGaussianBlur stdDeviation="7" result="b"/><feMerge><feMergeNode in="b"/><feMergeNode in="SourceGraphic"/></feMerge></filter>
</defs>
<rect width="640" height="640" rx="44" fill="url(#bg)"/>
<g fill="#c884ff" opacity=".85"><path d="M90 87v16M82 95h16" stroke="#c884ff" stroke-width="3"/><path d="M530 92v16M522 100h16" stroke="#c884ff" stroke-width="3"/><path d="M565 237v16M557 245h16" stroke="#c884ff" stroke-width="3"/><path d="M82 322v16M74 330h16" stroke="#c884ff" stroke-width="3"/><path d="M505 507v16M497 515h16" stroke="#c884ff" stroke-width="3"/><path d="M150 512v16M142 520h16" stroke="#c884ff" stroke-width="3"/></g>
<circle cx="320" cy="300" r="214" fill="none" stroke="#c884ff" stroke-opacity=".16" stroke-width="2"/>

<g filter="url(#glow)">
<path d="M175 455 220 230 270 450Z" fill="#7842a9"/><path d="M215 455 300 105 360 455Z" fill="#a657db"/><path d="M300 455 390 190 435 455Z" fill="#7436a6"/><path d="M370 455 470 280 505 455Z" fill="#8f4bc2"/>
<path d="m300 105 30 110-85 85Z" fill="#f1d0ff"/><path d="m390 190 24 96-82 88Z" fill="#ddb6ff"/><path d="m220 230 24 90-64 70Z" fill="#c890f0"/>
</g>
<path d="M105 480q55-45 110 0t110 0 110 0 110 0" fill="none" stroke="#51305d" stroke-width="18"/>
<path d="M140 490v-72m350 72v-72" stroke="#5a6d44" stroke-width="9"/><circle cx="140" cy="412" r="19" fill="#d274b3"/><circle cx="490" cy="412" r="19" fill="#d274b3"/>
<text x="320" y="585" text-anchor="middle" fill="#f4eee4" font-family="Georgia,serif" font-size="30" letter-spacing="3">AMETHYST</text>
</svg>