<svg xmlns="http://www.w3.org/2000/svg" viewBox="0 0 640 640" role="img" aria-label="PYRITE">
<defs>
  <radialGradient id="bg"><stop stop-color="#f0c35b" stop-opacity=".18"/><stop offset=".55" stop-color="#111621"/><stop offset="1" stop-color="#07090d"/></radialGradient>
  <filter id="glow"><feGaussianBlur stdDeviation="7" result="b"/><feMerge><feMergeNode in="b"/><feMergeNode in="SourceGraphic"/></feMerge></filter>
</defs>
<rect width="640" height="640" rx="44" fill="url(#bg)"/>
<g fill="#f0c35b" opacity=".85"><path d="M90 87v16M82 95h16" stroke="#f0c35b" stroke-width="3"/><path d="M530 92v16M522 100h16" stroke="#f0c35b" stroke-width="3"/><path d="M565 237v16M557 245h16" stroke="#f0c35b" stroke-width="3"/><path d="M82 322v16M74 330h16" stroke="#f0c35b" stroke-width="3"/><path d="M505 507v16M497 515h16" stroke="#f0c35b" stroke-width="3"/><path d="M150 512v16M142 520h16" stroke="#f0c35b" stroke-width="3"/></g>
<circle cx="320" cy="300" r="214" fill="none" stroke="#f0c35b" stroke-opacity=".16" stroke-width="2"/>

<g filter="url(#glow)" stroke="#fff0b0" stroke-width="5">
<path d="M170 360 255 275 340 360 255 445Z" fill="#b87923"/><path d="M255 275 340 318 340 360 255 360Z" fill="#e8b84c"/>
<path d="M300 255 380 180 458 258 380 335Z" fill="#cc8e2f"/><path d="M380 180 458 220 458 258 380 258Z" fill="#f0c65d"/>
<path d="M330 420 410 345 485 420 410 492Z" fill="#ad7020"/>
<path d="M155 445 220 380 285 445 220 505Z" fill="#d29a36"/>
</g>
<path d="M110 470h410" stroke="#8f6c32" stroke-width="12"/><path d="M120 210h135v15H120z" fill="#704b2b"/><path d="M145 225v185" stroke="#705035" stroke-width="12"/><rect x="120" y="270" width="55" height="75" rx="8" fill="#b36d2f"/><rect x="134" y="286" width="27" height="42" rx="5" fill="#ffcb54" filter="url(#glow)"/>
<text x="320" y="585" text-anchor="middle" fill="#f4eee4" font-family="Georgia,serif" font-size="30" letter-spacing="3">PYRITE</text>
</svg>